<svg width="32" height="35" viewBox="0 0 32 35" fill="none" xmlns="http://www.w3.org/2000/svg">
<path d="M14.6594 0.399766C12.993 1.84487 11.7335 3.70067 11.0059 5.78294C10.2784 7.86522 10.108 10.1016 10.5119 12.27C7.8501 10.737 4.91185 10.275 1.5396 10.555C1.3193 10.5733 1.10478 10.635 0.908404 10.7365C0.712025 10.838 0.537659 10.9773 0.395342 11.1465C0.253024 11.3156 0.145565 11.5112 0.0791496 11.7221C0.0127338 11.9329 -0.0113276 12.1548 0.00835069 12.375C0.283101 15.3955 1.67435 18.3915 3.61335 20.733C2.88308 20.726 2.15323 20.7711 1.42935 20.8678C1.01227 20.9229 0.632164 21.1358 0.367206 21.4626C0.102249 21.7894 -0.0274245 22.2053 0.00485095 22.6248C0.261869 25.9636 1.76959 29.0825 4.2266 31.3578C6.68361 33.6331 9.90887 34.8973 13.2576 34.8975H18.1961C21.5448 34.8973 24.7701 33.6331 27.2271 31.3578C29.6841 29.0825 31.1918 25.9636 31.4489 22.6248C31.4807 22.2054 31.3509 21.7897 31.086 21.463C30.8211 21.1363 30.4413 20.9233 30.0244 20.8678C29.3091 20.7723 28.5881 20.7273 27.8666 20.733C29.8039 18.3898 31.1951 15.3955 31.4716 12.375C31.4913 12.1548 31.4672 11.9329 31.4008 11.7221C31.3344 11.5112 31.2269 11.3156 31.0846 11.1465C30.9423 10.9773 30.7679 10.838 30.5715 10.7365C30.3752 10.635 30.1607 10.5733 29.9404 10.555C26.5664 10.275 23.6124 10.737 20.9401 12.27C21.3443 10.1019 21.1746 7.86572 20.4476 5.78347C19.7207 3.70121 18.4619 1.84525 16.7961 0.399766C16.4999 0.141983 16.1204 0 15.7277 0C15.335 0 14.9556 0.141983 14.6594 0.399766ZM15.7269 16.9198C13.93 15.0487 12.9266 12.5551 12.9266 9.96089C12.9266 7.36673 13.93 4.87312 15.7269 3.00202C17.5228 4.87324 18.5256 7.3664 18.5256 9.96002C18.5256 12.5536 17.5228 15.0468 15.7269 16.918V16.9198ZM15.7269 26.732C13.82 24.3082 11.2446 22.4964 8.3191 21.5205C8.26297 21.4656 8.20206 21.4158 8.1371 21.3718C5.5646 19.6218 3.37885 16.3948 2.75935 13.1118C6.03185 13.0033 8.5991 13.789 10.9406 15.7735C12.7344 17.2943 13.5306 19.1475 14.1221 20.5248C14.2744 20.8818 14.4144 21.2073 14.5526 21.4838C14.6615 21.7019 14.8291 21.8855 15.0365 22.0137C15.2439 22.142 15.483 22.2099 15.7269 22.2099C15.9707 22.2099 16.2098 22.142 16.4172 22.0137C16.6246 21.8855 16.7922 21.7019 16.9011 21.4838C17.0542 21.1685 17.1978 20.8487 17.3316 20.5248C17.9231 19.1475 18.7193 17.2925 20.5131 15.7735C22.8546 13.7908 25.4429 13.0033 28.7206 13.1118C28.0993 16.3948 25.9136 19.6218 23.3411 21.3718C23.2821 21.4121 23.2265 21.4572 23.1749 21.5065C20.2329 22.4792 17.6426 24.2966 15.7269 26.732ZM16.8538 29.7175C19.2898 25.64 23.8574 23.1025 28.7154 23.3773C28.2963 25.8641 27.0097 28.1221 25.084 29.7505C23.1583 31.3789 20.718 32.2724 18.1961 32.2725H13.2576C8.0076 32.2725 3.5906 28.4645 2.7401 23.379C7.59635 23.1025 12.1638 25.6383 14.5998 29.7175C14.7163 29.9126 14.8813 30.0741 15.0789 30.1862C15.2764 30.2984 15.4997 30.3573 15.7269 30.3573C15.954 30.3573 16.1773 30.2984 16.3748 30.1862C16.5724 30.0741 16.7374 29.9126 16.8538 29.7175Z" fill="black"/>
</svg>
