<svg width="30" height="35" viewBox="0 0 30 35" fill="none" xmlns="http://www.w3.org/2000/svg">
<path d="M15 0C18.9782 0 22.7936 1.58035 25.6066 4.3934C28.4196 7.20644 30 11.0218 30 15C30 21.21 25.2667 27.7167 16 34.6667C15.7115 34.883 15.3606 35 15 35C14.6394 35 14.2885 34.883 14 34.6667C4.73333 27.7167 0 21.21 0 15C0 11.0218 1.58035 7.20644 4.3934 4.3934C7.20644 1.58035 11.0218 0 15 0ZM15 3.33333C11.9058 3.33333 8.93835 4.5625 6.75042 6.75042C4.5625 8.93835 3.33333 11.9058 3.33333 15C3.33333 19.5167 6.86333 24.7267 14.08 30.51L15 31.2367L15.92 30.51C23.1367 24.7267 26.6667 19.5167 26.6667 15C26.6667 11.9058 25.4375 8.93835 23.2496 6.75042C21.0617 4.5625 18.0942 3.33333 15 3.33333ZM15 11.6667C15.8841 11.6667 16.7319 12.0179 17.357 12.643C17.9821 13.2681 18.3333 14.1159 18.3333 15C18.3333 15.8841 17.9821 16.7319 17.357 17.357C16.7319 17.9821 15.8841 18.3333 15 18.3333C14.1159 18.3333 13.2681 17.9821 12.643 17.357C12.0179 16.7319 11.6667 15.8841 11.6667 15C11.6667 14.1159 12.0179 13.2681 12.643 12.643C13.2681 12.0179 14.1159 11.6667 15 11.6667Z" fill="black"/>
</svg>
