<svg width="36" height="36" viewBox="0 0 36 36" fill="none" xmlns="http://www.w3.org/2000/svg">
<path d="M33.8379 7.03565V1.40625C33.8379 0.628418 33.2095 0 32.4317 0H2.72464C1.9468 0 1.31839 0.628418 1.31839 1.40625V7.03565C0.5845 7.07959 2.72282e-05 7.69043 2.72282e-05 8.4375V14.2251C-0.00278705 15.2888 0.212588 16.3417 0.63284 17.3188C0.821805 17.7671 1.05471 18.189 1.31839 18.5889V33.75C1.31839 34.5234 1.9468 35.1562 2.72464 35.1562H32.4317C33.2095 35.1562 33.8379 34.5278 33.8379 33.75V18.5889C34.1057 18.188 34.3353 17.7627 34.5235 17.3188C34.9409 16.3389 35.1563 15.2974 35.1563 14.2251V8.4375C35.1563 7.69043 34.5718 7.07959 33.8379 7.03565ZM4.48245 3.16406H30.6739V7.03125H4.48245V3.16406ZM20.3907 31.9966H14.7657V27.4219H20.3907V31.9966ZM30.6739 31.9966H23.2032V26.0156C23.2032 25.2378 22.5747 24.6094 21.7969 24.6094H13.3594C12.5816 24.6094 11.9532 25.2378 11.9532 26.0156V31.9966H4.48245V21.353C4.60989 21.4146 4.74173 21.4761 4.87796 21.5288C5.85794 21.9419 6.89944 22.1484 7.97171 22.1484C9.04397 22.1484 10.0811 21.9419 11.0655 21.5288C11.6719 21.2739 12.2432 20.9487 12.7661 20.5576C12.7749 20.5532 12.7837 20.5532 12.7925 20.5576C13.3171 20.9504 13.8883 21.2766 14.4932 21.5288C15.4732 21.9419 16.5147 22.1484 17.5869 22.1484C18.6592 22.1484 19.6963 21.9419 20.6807 21.5288C21.2871 21.2739 21.8584 20.9487 22.3814 20.5576C22.3902 20.5532 22.399 20.5532 22.4077 20.5576C22.9323 20.9504 23.5036 21.2766 24.1084 21.5288C25.0884 21.9419 26.1299 22.1484 27.2022 22.1484C28.2744 22.1484 29.3116 21.9419 30.2959 21.5288C30.4278 21.4717 30.5596 21.4146 30.6914 21.353V31.9966H30.6739ZM31.9922 14.2251C31.9922 16.853 29.8389 18.9844 27.189 18.9844C25.396 18.9844 23.8316 18.0132 23.0054 16.5718C22.878 16.3521 22.6494 16.2158 22.3946 16.2158H22.3682C22.1177 16.2158 21.8848 16.3521 21.7574 16.5718C21.3357 17.3071 20.727 17.9176 19.9929 18.3414C19.2589 18.7651 18.4257 18.987 17.5782 18.9844C15.7896 18.9844 14.2295 18.0176 13.4033 16.5806C13.2715 16.3564 13.0342 16.2158 12.7749 16.2158C12.5157 16.2158 12.274 16.3564 12.1465 16.5806C11.7224 17.313 11.1129 17.9209 10.3792 18.3428C9.64557 18.7648 8.81368 18.9861 7.96731 18.9844C5.31741 18.9844 3.16409 16.853 3.16409 14.2251V10.2173C3.16409 10.2041 3.17288 10.1953 3.18606 10.1953H31.9702C31.9834 10.1953 31.9922 10.2041 31.9922 10.2173V14.2251Z" fill="black"/>
</svg>
